<svg width="64" height="64" viewBox="0 0 64 64" fill="none" xmlns="http://www.w3.org/2000/svg">
<rect width="64" height="64" rx="32" fill="#0A0A1C"/>
<path d="M19.7707 12C19.7707 12 14.9972 13.5385 14.9972 18.1538C14.9972 20.6358 17.1975 22.5589 19.721 23.2019C17.0048 23.9952 16.5698 25.5337 14.5 25.8462C18.5836 29.2296 21.828 26.4471 22.3564 25.9423C21.2003 28.22 20.299 30.4615 19.7707 32C19.7707 32 26.5456 35.4555 27.5773 42.0481C26.701 43.1058 26.1354 44.3978 26.1354 45.8462C26.1354 49.2296 29.0007 52 32.5 52C35.9993 52 38.8646 49.2296 38.8646 45.8462C38.8646 44.3978 38.299 43.1058 37.4226 42.0481C38.4544 35.4555 45.2293 32 45.2293 32C44.6948 30.4435 43.8184 28.2019 42.6436 25.8942C43.116 26.357 46.3729 29.2656 50.5 25.8462C48.424 25.5337 47.9952 23.9952 45.279 23.2019C47.8025 22.5589 50.0028 20.6358 50.0028 18.1538C50.0028 13.5385 45.2293 12 45.2293 12C45.2293 12 47.0691 13.5385 47.0691 16.6154C47.0691 19.5541 41.6678 21.0925 37.2238 18.5385C35.7942 17.3546 34.2217 16.6154 32.5 16.6154C30.7783 16.6154 29.2058 17.3546 27.7762 18.5385C23.3322 21.0925 17.9309 19.5541 17.9309 16.6154C17.9309 13.5385 19.7707 12 19.7707 12ZM24.5442 28.9231L29.3177 32C29.3177 32 27.9814 33.256 26.4337 32.6731C23.9413 31.7356 24.5442 28.9231 24.5442 28.9231ZM40.4558 28.9231C40.4558 28.9231 41.0587 31.7356 38.5663 32.6731C37.0186 33.256 35.6823 32 35.6823 32L40.4558 28.9231ZM29.4171 45.0769C30.1878 45.4976 31.1948 45.8462 32.5 45.8462C33.8052 45.8462 34.8122 45.4976 35.5829 45.0769C35.645 45.3233 35.6823 45.5757 35.6823 45.8462C35.6823 47.5649 34.2776 48.9231 32.5 48.9231C30.7224 48.9231 29.3177 47.5649 29.3177 45.8462C29.3177 45.5757 29.355 45.3233 29.4171 45.0769Z" fill="white"/>
</svg>
